<svg width="220" height="64" viewBox="0 0 220 64" fill="none" xmlns="http://www.w3.org/2000/svg">
  <rect x="0" y="0" width="64" height="64" rx="20" fill="#0D0F1A"/>
  <path d="M20 34C20 25.163 27.163 18 36 18H44C52.837 18 60 25.163 60 34V36C60 44.837 52.837 52 44 52H20V34Z" fill="#3FCAA4"/>
  <path d="M24 34C24 28.477 28.477 24 34 24H44C49.523 24 54 28.477 54 34V36C54 41.523 49.523 46 44 46H24V34Z" fill="#F7F2EA"/>
  <circle cx="28" cy="34" r="4" fill="#0D0F1A"/>
  <circle cx="44" cy="34" r="4" fill="#0D0F1A"/>
  <path d="M80 22H100.6C109.9 22 116.2 28.3 116.2 36.8C116.2 45.4 109.9 52 100.6 52H80V22Z" fill="#0D0F1A"/>
  <path d="M95.6 32H101.2C104.6 32 107 34.4 107 37.8C107 41.4 104.6 43.8 101.2 43.8H95.6V32Z" fill="#3FCAA4"/>
  <text x="128" y="30" font-family="'DM Sans', sans-serif" font-size="14" font-weight="700" letter-spacing="4" fill="#3B4158">OMEGA</text>
  <text x="128" y="50" font-family="'DM Sans', sans-serif" font-size="22" font-weight="700" fill="#0D0F1A">Omega</text>
</svg>
